<?xml version="1.0" standalone="no"?>
<!DOCTYPE svg PUBLIC "-//W3C//DTD SVG 20010904//EN"
 "http://www.w3.org/TR/2001/REC-SVG-20010904/DTD/svg10.dtd">
<svg version="1.0" xmlns="http://www.w3.org/2000/svg"
 width="225.000000pt" height="225.000000pt" viewBox="0 0 225.000000 225.000000"
 preserveAspectRatio="xMidYMid meet">

<g transform="translate(0.000000,225.000000) scale(0.100000,-0.100000)"
fill="#000000" stroke="none">
<path d="M2145 2203 c-137 -61 -344 -129 -439 -144 -71 -12 -87 -11 -182 8
-56 12 -171 47 -253 78 l-150 57 -98 -40 c-117 -48 -243 -86 -336 -103 -52
-10 -84 -10 -142 -1 -93 15 -265 70 -415 133 -63 27 -119 49 -124 49 -13 0 1
-385 19 -550 65 -572 268 -1035 596 -1358 117 -114 223 -195 338 -256 145 -76
155 -78 231 -48 249 99 523 346 699 630 178 286 289 630 335 1032 15 126 34
561 25 559 -2 -1 -49 -21 -104 -46z m-887 -259 c309 -104 414 -108 686 -23 54
16 100 29 102 27 5 -5 -13 -221 -27 -318 -17 -129 -69 -347 -110 -468 -47
-136 -136 -327 -201 -428 -131 -203 -329 -393 -513 -490 l-71 -38 -69 38
c-433 238 -741 756 -824 1386 -15 110 -32 313 -27 318 2 2 46 -10 98 -26 127
-41 234 -62 315 -62 88 0 250 37 383 88 58 22 109 40 114 41 4 0 69 -20 144
-45z"/>
<path d="M943 1613 c-12 -2 -34 -18 -48 -34 -85 -101 -1 -243 124 -209 34 9
41 15 41 35 0 23 -1 24 -35 10 -61 -26 -105 7 -105 80 0 25 8 43 25 60 28 29
45 31 85 10 29 -15 30 -15 30 9 0 14 -4 27 -8 30 -14 8 -85 15 -109 9z"/>
<path d="M650 1490 l0 -120 70 0 c62 0 74 3 95 25 31 31 32 59 1 90 -20 20
-22 26 -10 36 19 15 18 54 -2 73 -11 12 -35 16 -85 16 l-69 0 0 -120z m110 55
c0 -21 -5 -25 -30 -25 -25 0 -30 4 -30 25 0 21 5 25 30 25 25 0 30 -4 30 -25z
m17 -81 c10 -26 -11 -49 -46 -52 -30 -3 -31 -2 -31 32 0 34 2 36 35 36 24 0
38 -5 42 -16z"/>
<path d="M1660 1575 c0 -14 -4 -25 -10 -25 -5 0 -10 -7 -10 -15 0 -8 4 -15 10
-15 5 0 10 -30 12 -67 3 -63 5 -69 31 -81 33 -16 77 -8 77 13 0 8 -12 15 -27
17 -27 3 -28 5 -28 58 0 53 1 55 28 58 38 5 36 32 -3 32 -25 0 -30 4 -30 25 0
20 -5 25 -25 25 -20 0 -25 -5 -25 -25z"/>
<path d="M1523 1545 c-14 -10 -24 -12 -28 -5 -3 5 -17 10 -31 10 l-24 0 0
-125 0 -125 25 0 c22 0 25 4 25 36 0 36 0 36 34 30 28 -5 40 -2 63 18 24 21
28 31 28 80 0 58 -12 78 -50 90 -12 3 -30 -1 -42 -9z m21 -31 c11 -4 16 -19
16 -49 0 -46 -17 -69 -47 -63 -26 5 -31 87 -7 105 21 15 18 15 38 7z"/>
<path d="M1100 1460 c0 -89 0 -90 25 -90 24 0 25 2 25 65 l0 65 35 0 c31 0 35
3 35 25 0 28 -10 31 -43 14 -16 -9 -22 -9 -25 0 -2 6 -15 11 -28 11 -24 0 -24
-1 -24 -90z"/>
<path d="M1230 1543 c0 -4 14 -43 30 -89 25 -66 29 -87 20 -108 -15 -41 -13
-48 16 -44 24 3 31 14 70 122 24 66 44 121 44 123 0 3 -12 3 -27 1 -24 -3 -30
-10 -43 -55 -8 -29 -17 -53 -21 -53 -3 0 -13 25 -23 55 -14 47 -21 55 -42 55
-13 0 -24 -3 -24 -7z"/>
<path d="M1233 1098 c-21 -5 -38 -19 -48 -39 -24 -45 -4 -79 58 -100 62 -20
73 -32 52 -53 -20 -20 -36 -20 -82 -1 -45 19 -43 19 -43 -10 0 -20 7 -26 39
-36 80 -24 151 11 151 75 0 40 -24 62 -77 72 -18 3 -38 13 -45 21 -29 35 59
53 100 21 9 -8 12 -4 12 16 0 15 -6 29 -12 31 -30 10 -75 11 -105 3z"/>
<path d="M700 980 l0 -120 25 0 c24 0 25 3 25 55 l0 55 45 0 45 0 0 -55 c0
-54 0 -55 30 -55 l30 0 0 120 0 120 -30 0 c-29 0 -30 -2 -30 -45 l0 -45 -45 0
-45 0 0 45 c0 41 -2 45 -25 45 l-25 0 0 -120z"/>
<path d="M972 980 l-41 -120 29 0 c21 0 29 6 34 25 5 21 12 25 46 25 34 0 42
-4 50 -25 7 -18 17 -25 35 -25 14 0 25 3 25 7 0 4 -17 58 -37 120 -37 113 -37
113 -69 113 -32 0 -32 0 -72 -120z m97 -22 c1 -5 -12 -8 -29 -8 -19 0 -28 4
-25 13 2 6 10 26 16 42 l11 30 13 -35 c8 -19 14 -38 14 -42z"/>
<path d="M1400 980 l0 -120 30 0 c30 0 30 1 30 55 l0 55 45 0 45 0 0 -55 c0
-52 1 -55 25 -55 l25 0 0 120 0 120 -25 0 c-23 0 -25 -4 -25 -45 l0 -45 -45 0
-45 0 0 45 c0 43 -1 45 -30 45 l-30 0 0 -120z"/>
</g>
</svg>
