<?xml version="1.0" standalone="no"?>
<!DOCTYPE svg PUBLIC "-//W3C//DTD SVG 20010904//EN"
 "http://www.w3.org/TR/2001/REC-SVG-20010904/DTD/svg10.dtd">
<svg version="1.0" xmlns="http://www.w3.org/2000/svg"
 width="318.000000pt" height="159.000000pt" viewBox="0 0 318.000000 159.000000"
 preserveAspectRatio="xMidYMid meet">

<g transform="translate(0.000000,159.000000) scale(0.100000,-0.100000)"
fill="#000000" stroke="none">
<path d="M0 795 l0 -795 1590 0 1590 0 0 300 c0 165 -4 300 -8 300 -4 0 -12
-4 -18 -9 -15 -15 -206 -121 -218 -121 -15 -1 -136 63 -136 72 0 4 9 12 20 18
16 9 30 6 68 -16 l48 -27 121 69 122 69 1 63 0 63 -33 -25 c-87 -66 -277 -25
-277 59 0 20 5 25 25 25 15 0 25 -6 25 -14 0 -8 12 -24 26 -35 30 -24 100 -28
153 -10 28 10 32 15 29 43 -3 28 -7 32 -43 38 -133 25 -156 31 -179 49 -45 36
-30 106 29 136 36 18 106 24 144 12 47 -15 91 -57 91 -86 0 -34 -45 -33 -54 1
-12 50 -152 61 -177 14 -17 -32 7 -47 110 -68 51 -10 102 -27 112 -36 19 -17
19 -14 19 119 l0 137 -37 23 c-21 13 -45 27 -53 31 -8 4 -24 12 -35 19 -95 58
-114 67 -131 61 -30 -11 -308 -177 -316 -188 -4 -6 -8 -93 -8 -193 l0 -183 38
-23 c64 -41 117 -50 134 -23 4 6 8 95 8 197 0 162 2 188 16 193 9 3 20 4 25 0
12 -7 12 -376 -1 -408 -5 -15 -24 -33 -43 -42 -30 -14 -36 -14 -87 4 -31 11
-54 25 -52 31 1 7 -2 10 -8 6 -5 -3 -24 3 -40 15 l-30 21 0 219 c0 217 0 220
23 233 92 57 326 189 342 193 18 4 149 -62 220 -112 11 -8 23 -14 27 -14 5 0
8 88 8 195 l0 195 -1590 0 -1590 0 0 -795z m400 253 c0 -7 10 -33 21 -58 l21
-45 23 55 c22 53 25 55 64 58 l41 3 0 -115 0 -116 -30 0 -30 0 0 78 0 77 -25
-52 c-17 -38 -30 -53 -44 -53 -14 0 -27 15 -45 53 l-24 52 -1 -78 -1 -78 -27
3 -28 3 -3 113 -3 112 46 0 c29 0 45 -4 45 -12z m280 -55 c0 -85 7 -110 31
-116 36 -10 49 18 49 104 l0 79 30 0 30 0 0 -90 c0 -83 -2 -93 -25 -115 -17
-18 -35 -25 -64 -25 -89 0 -111 31 -111 156 l0 74 30 0 30 0 0 -67z m260 -23
l0 -90 50 0 c47 0 50 -2 50 -25 0 -26 0 -26 -82 -23 l-83 3 -2 113 -1 112 34
0 34 0 0 -90z m270 70 c0 -14 -7 -20 -22 -22 -13 0 -30 -1 -38 -2 -12 -1 -16
-20 -18 -93 l-3 -93 -29 0 -29 0 -3 93 -3 92 -35 0 c-29 0 -36 4 -38 23 -3 22
-2 22 107 22 104 0 111 -1 111 -20z m180 -3 c0 -20 -4 -22 -44 -19 -37 3 -44
1 -49 -17 -5 -19 -1 -21 44 -21 46 0 49 -2 49 -25 0 -23 -4 -25 -45 -25 -41 0
-45 -2 -45 -25 0 -23 3 -25 50 -25 47 0 50 -2 50 -25 0 -26 0 -26 -82 -23
l-83 3 -3 113 -3 112 81 0 c76 0 80 -1 80 -23z m206 15 c35 -23 36 -91 2 -105
-9 -4 -10 -8 -2 -14 11 -8 54 -86 54 -98 0 -3 -13 -5 -29 -5 -24 0 -34 8 -53
42 -13 24 -31 44 -41 46 -14 3 -17 -4 -17 -42 0 -44 -1 -46 -30 -46 l-30 0 0
115 0 115 68 0 c37 0 72 -4 78 -8z m-1246 -427 c0 -19 5 -35 10 -35 6 0 10 16
10 35 0 24 5 35 15 35 10 0 15 -10 15 -34 0 -37 -19 -60 -47 -54 -20 4 -39 48
-30 72 11 28 27 17 27 -19z m170 -10 c0 -25 -4 -45 -10 -45 -5 0 -10 6 -11 13
-4 67 -3 77 9 77 8 0 12 -16 12 -45z m230 2 c0 -40 -2 -43 -26 -42 -34 0 -53
27 -35 49 8 9 20 16 27 16 8 0 14 5 14 10 0 6 5 10 10 10 6 0 10 -19 10 -43z
m120 33 c0 -5 -10 -11 -22 -11 l-23 -2 23 -4 c27 -5 29 -23 2 -23 -13 0 -20
-7 -20 -20 0 -11 -4 -20 -10 -20 -5 0 -10 20 -10 45 0 43 1 45 30 45 17 0 30
-4 30 -10z m36 -27 c-1 -51 -21 -53 -21 -3 -1 24 4 40 11 40 6 0 11 -15 10
-37z m42 -5 c-2 -24 -7 -43 -13 -43 -5 0 -11 19 -13 43 -3 33 0 42 13 42 13 0
16 -9 13 -42z m152 -3 c0 -25 -4 -45 -10 -45 -5 0 -10 20 -10 45 0 25 5 45 10
45 6 0 10 -20 10 -45z m174 18 l15 -28 1 28 c0 15 5 27 10 27 6 0 10 -20 10
-45 0 -50 -11 -57 -34 -23 l-16 22 0 -22 c0 -27 -20 -29 -21 -2 -5 77 8 93 35
43z m196 -17 c0 -42 -2 -45 -26 -43 -35 3 -53 29 -35 51 8 9 20 16 27 16 8 0
14 5 14 10 0 6 5 10 10 10 6 0 10 -20 10 -44z m196 4 c8 0 14 -4 14 -10 0 -5
-7 -10 -15 -10 -8 0 -15 -7 -15 -16 0 -13 -5 -11 -25 7 -15 15 -20 25 -12 28
7 2 16 11 22 20 8 14 10 14 13 -1 2 -10 10 -18 18 -18z m124 20 c0 -5 -8 -11
-17 -11 -17 -1 -17 -2 0 -6 9 -2 17 -9 17 -14 0 -5 -8 -10 -17 -10 -17 -1 -17
-2 0 -6 28 -7 19 -23 -13 -23 -28 0 -30 2 -30 40 0 38 2 40 30 40 17 0 30 -4
30 -10z m-1312 -33 c3 -22 -1 -30 -17 -34 -12 -3 -21 -10 -21 -15 0 -5 -5 -8
-12 -6 -6 2 -13 23 -15 47 l-3 42 32 -3 c28 -3 34 -7 36 -31z m119 17 c8 -22
-10 -49 -32 -49 -10 0 -22 7 -28 16 -15 24 -1 49 28 49 15 0 28 -7 32 -16z
m71 -20 c3 -28 0 -31 -23 -31 -30 0 -45 24 -24 38 10 6 10 9 2 9 -7 0 -13 5
-13 11 0 6 12 9 28 7 22 -2 28 -9 30 -34z m350 24 c19 -19 14 -28 -15 -29 -24
-2 -25 -2 -5 -6 32 -6 27 -25 -5 -21 -28 3 -40 25 -29 54 7 17 38 18 54 2z
m160 -25 c2 -19 -1 -33 -7 -33 -6 0 -11 11 -11 25 0 14 -4 25 -10 25 -5 0 -10
-11 -10 -25 0 -32 -18 -32 -26 -1 -8 34 3 48 34 44 22 -2 28 -9 30 -35z m207
2 c0 -38 -37 -48 -55 -15 -14 27 4 52 34 48 16 -2 21 -10 21 -33z m163 13 c2
-13 -3 -18 -20 -19 -23 -1 -23 -1 2 -9 22 -6 23 -8 8 -15 -38 -15 -72 21 -47
51 16 19 53 14 57 -8z m309 -18 c0 -23 -5 -27 -29 -27 -22 0 -25 3 -17 14 8 9
8 17 0 26 -8 11 -5 14 17 14 24 0 29 -4 29 -27z m81 2 c3 -17 -2 -25 -17 -29
-12 -3 -21 -9 -21 -14 0 -5 -7 -9 -15 -9 -11 0 -15 11 -15 41 0 39 1 40 33 37
25 -2 33 -8 35 -26z m120 -5 c3 -26 1 -28 -25 -25 -20 2 -29 9 -31 26 -3 19
-6 21 -18 11 -8 -6 -14 -18 -14 -25 0 -8 -4 -14 -10 -14 -5 0 -10 13 -10 30 0
30 0 30 53 27 49 -2 52 -4 55 -30z m62 22 c0 -5 -6 -7 -12 -4 -7 4 -5 0 6 -9
10 -8 15 -19 11 -25 -8 -14 -55 -14 -55 -1 0 5 8 7 18 3 15 -5 14 -4 -2 9 -10
8 -16 20 -12 26 9 15 46 16 46 1z m65 1 c-4 -6 -12 -8 -18 -4 -7 3 -4 -1 6 -9
24 -20 21 -37 -8 -37 -14 0 -25 4 -25 10 0 5 8 7 18 4 16 -5 16 -5 0 6 -27 17
-22 40 8 40 14 0 23 -4 19 -10z m-1735 -135 c0 -25 -4 -45 -10 -45 -5 0 -10
20 -10 45 0 25 5 45 10 45 6 0 10 -20 10 -45z m60 13 c0 -5 -4 -8 -10 -8 -5 0
-10 -7 -10 -15 0 -8 5 -15 10 -15 6 0 10 -5 10 -11 0 -22 -34 -3 -41 24 -11
42 -2 59 22 44 10 -6 19 -15 19 -19z m30 22 c0 -5 9 -10 20 -10 21 0 38 -40
25 -59 -11 -20 -25 -11 -25 15 0 14 -4 23 -10 19 -5 -3 -10 -15 -10 -26 0 -10
-4 -19 -10 -19 -5 0 -10 20 -10 45 0 25 5 45 10 45 6 0 10 -4 10 -10z m320
-35 c0 -25 -4 -45 -10 -45 -5 0 -10 20 -10 45 0 25 5 45 10 45 6 0 10 -20 10
-45z m48 28 c12 -12 13 -18 4 -21 -14 -4 -16 -32 -2 -32 6 0 10 -5 10 -11 0
-6 -8 -9 -17 -7 -18 3 -35 51 -26 74 7 18 11 18 31 -3z m-564 -15 c5 -10 7
-10 12 0 8 18 24 15 24 -5 0 -15 2 -14 14 3 20 27 28 13 15 -24 -11 -33 -23
-40 -35 -21 -4 8 -9 7 -15 -2 -11 -18 -25 -3 -34 34 -7 27 8 39 19 15z m394
-26 c2 -18 -1 -32 -7 -32 -6 0 -11 11 -11 25 0 14 -4 25 -10 25 -5 0 -10 -11
-10 -25 0 -14 -4 -25 -10 -25 -5 0 -10 11 -10 25 0 14 -4 25 -10 25 -5 0 -10
-11 -10 -25 0 -14 -4 -25 -10 -25 -5 0 -10 16 -10 35 l0 35 48 -3 c45 -3 47
-4 50 -35z m42 12 c0 -14 4 -23 10 -19 6 3 10 15 10 26 0 10 5 19 10 19 6 0
10 -16 10 -36 0 -33 -2 -35 -27 -32 -23 2 -29 8 -31 36 -2 18 1 32 7 32 6 0
11 -12 11 -26z m208 4 c2 -13 -3 -18 -20 -19 l-23 -2 23 -4 c30 -6 28 -23 -3
-23 -30 0 -47 27 -33 53 12 23 51 19 56 -5z m67 12 c3 -5 -1 -10 -9 -10 -10 0
-16 -9 -16 -25 0 -14 -4 -25 -9 -25 -13 0 -22 30 -16 51 7 20 40 26 50 9z"/>
<path d="M1510 990 c0 -27 3 -31 23 -28 16 2 22 10 22 28 0 18 -6 26 -22 28
-20 3 -23 -1 -23 -28z"/>
<path d="M710 605 c0 -8 5 -15 10 -15 6 0 10 7 10 15 0 8 -4 15 -10 15 -5 0
-10 -7 -10 -15z"/>
<path d="M1430 604 c0 -8 5 -12 10 -9 6 3 10 10 10 16 0 5 -4 9 -10 9 -5 0
-10 -7 -10 -16z"/>
<path d="M440 605 c0 -8 5 -15 10 -15 6 0 10 7 10 15 0 8 -4 15 -10 15 -5 0
-10 -7 -10 -15z"/>
<path d="M556 611 c-4 -5 -2 -12 3 -15 5 -4 12 -2 15 3 4 5 2 12 -3 15 -5 4
-12 2 -15 -3z"/>
<path d="M1350 605 c0 -8 5 -15 10 -15 6 0 10 7 10 15 0 8 -4 15 -10 15 -5 0
-10 -7 -10 -15z"/>
<path d="M1900 600 c0 -5 5 -10 10 -10 6 0 10 5 10 10 0 6 -4 10 -10 10 -5 0
-10 -4 -10 -10z"/>
</g>
</svg>
