<?xml version="1.0" encoding="UTF-8"?>
<svg version="1.1" xmlns="http://www.w3.org/2000/svg" width="225" height="225">
<path d="M0 0 C74.25 0 148.5 0 225 0 C225 74.25 225 148.5 225 225 C150.75 225 76.5 225 0 225 C0 150.75 0 76.5 0 0 Z " fill="#FCFCFC" transform="translate(0,0)"/>
<path d="M0 0 C0.9987767 -0.00700928 1.99755341 -0.01401855 3.02659607 -0.02124023 C6.32986203 -0.03885318 9.63227211 -0.02718532 12.93554688 -0.01367188 C15.22953455 -0.01636583 17.52352112 -0.02024744 19.81750488 -0.02526855 C24.62600574 -0.0311681 29.43420945 -0.02258566 34.24267578 -0.00390625 C40.41016542 0.01888317 46.57695883 0.00576259 52.74442291 -0.01819611 C57.48160052 -0.03264154 62.21861273 -0.02805378 66.95579529 -0.01768494 C69.23001691 -0.0150142 71.50425348 -0.01829955 73.77845764 -0.02760315 C76.95557506 -0.03774772 80.13156075 -0.02229598 83.30859375 0 C84.25105453 -0.00809692 85.19351532 -0.01619385 86.16453552 -0.02453613 C89.84005212 0.0233152 92.4443911 0.15178877 95.73730469 1.84851074 C98.09405848 6.28772693 97.70885799 10.79486338 97.671875 15.74023438 C97.67888428 16.88531464 97.68589355 18.0303949 97.69311523 19.21017456 C97.71073986 23.00038811 97.6990558 26.7898568 97.68554688 30.58007812 C97.68824048 33.2103693 97.6921218 35.84065951 97.69714355 38.47094727 C97.7044186 43.98559662 97.69483625 49.50003163 97.67578125 55.01464844 C97.65401247 61.38820479 97.66106397 67.76124933 97.68308687 74.13479328 C97.70343258 80.26871334 97.70127087 86.40240667 97.68955994 92.53634644 C97.68688798 95.14549837 97.69017879 97.75466332 97.69947815 100.36380005 C97.70961521 104.00786139 97.69418061 107.65093432 97.671875 111.29492188 C97.67997192 112.37764374 97.68806885 113.4603656 97.69641113 114.57589722 C97.6160455 121.64814481 97.6160455 121.64814481 95.73730469 125.18565369 C91.67480222 127.28047752 87.81686512 127.082242 83.30859375 127.05102539 C82.30981705 127.05964096 81.31104034 127.06825653 80.28199768 127.07713318 C76.97875089 127.09984614 73.67634873 127.0930446 70.37304688 127.08398438 C68.0790583 127.08921735 65.78507188 127.09549263 63.49108887 127.10276794 C58.68259559 127.11318187 53.87439807 127.10859588 49.06591797 127.09399414 C42.89832395 127.07680004 36.73166095 127.10030505 30.56417084 127.13548374 C25.82698369 127.15742371 21.09002051 127.15602452 16.35279846 127.14771843 C14.07856729 127.14689715 11.80431995 127.15379414 9.53013611 127.16848946 C6.35283839 127.18587305 3.17722917 127.17144353 0 127.14868164 C-1.41369118 127.16621994 -1.41369118 127.16621994 -2.85594177 127.18411255 C-6.85170113 127.12575199 -9.12239 127.03189614 -12.42871094 124.6809082 C-14.56977929 119.90113173 -14.40250756 115.45582354 -14.36328125 110.27319336 C-14.37029053 109.13772064 -14.3772998 108.00224792 -14.38452148 106.83236694 C-14.40212319 103.080053 -14.39047093 99.32849346 -14.37695312 95.57617188 C-14.3796472 92.96973017 -14.38352892 90.36328945 -14.3885498 87.7568512 C-14.39582043 82.29525578 -14.38625302 76.83387696 -14.3671875 71.37231445 C-14.34540866 65.06065166 -14.35247928 58.74950552 -14.37449312 52.43785518 C-14.39483818 46.36106356 -14.39267784 40.2845008 -14.38096619 34.20768929 C-14.37829458 31.62365713 -14.38158381 29.03961182 -14.3908844 26.45559502 C-14.40102134 22.84756186 -14.38558762 19.24052699 -14.36328125 15.63256836 C-14.37137817 14.56076828 -14.3794751 13.4889682 -14.38781738 12.38468933 C-14.30748051 5.38519589 -14.30748051 5.38519589 -12.42871094 1.85523987 C-8.36636845 -0.24852463 -4.5111707 -0.03875663 0 0 Z " fill="#141414" transform="translate(70.845703125,71.482421875)"/>
<path d="M0 0 C34.65 0 69.3 0 105 0 C105.33 10.89 105.66 21.78 106 33 C114.27982823 41.27982823 129.29592716 35.64533113 141 36 C141 85.17 141 134.34 141 185 C94.47 185 47.94 185 0 185 C0 123.95 0 62.9 0 0 Z M16.41699219 53.33766174 C14.07072522 57.74598266 14.44529921 62.20101629 14.48242188 67.11499023 C14.4754126 68.24871063 14.46840332 69.38243103 14.46118164 70.55050659 C14.44355631 74.30345044 14.45524209 78.05564203 14.46875 81.80859375 C14.46605623 84.41406906 14.46217477 87.01954339 14.45715332 89.62501526 C14.4498779 95.08839076 14.45946052 100.55154993 14.47851562 106.01489258 C14.50027359 112.32594677 14.49324093 118.63648383 14.47121 124.94752544 C14.45084971 131.02377758 14.45303197 137.09980099 14.46473694 143.17607307 C14.467407 145.75927872 14.46412471 148.34249753 14.45481873 150.92568779 C14.4446682 154.53601982 14.46013574 158.14535733 14.48242188 161.75561523 C14.47432495 162.82539108 14.46622803 163.89516693 14.45788574 164.99736023 C14.5061028 169.21041176 14.68257912 172.29138141 16.41699219 176.16333008 C20.40234576 178.99715001 24.06555867 178.69040615 28.84570312 178.63110352 C29.84447983 178.63825882 30.84325653 178.64541412 31.87229919 178.65278625 C35.17574722 178.66970321 38.47784394 178.6502522 41.78125 178.62890625 C44.07523715 178.62973467 46.36922424 178.63219301 48.66320801 178.63621521 C53.47177998 178.63907528 58.27988671 178.62435094 63.08837891 178.59692383 C69.25589206 178.5628413 75.42257307 178.56885761 81.59012604 178.5875864 C86.32732086 178.59814873 91.06432164 178.58922543 95.80149841 178.57420158 C98.07571334 178.56901371 100.34994848 178.56950888 102.62416077 178.57574654 C105.80131695 178.58118927 108.97727693 178.56085263 112.15429688 178.53344727 C113.09675766 178.53997314 114.03921844 178.54649902 115.01023865 178.55322266 C118.68463436 178.49925683 121.29171277 178.36522734 124.58300781 176.66807556 C126.94023011 172.22962681 126.55455715 167.72218434 126.51757812 162.77734375 C126.5245874 161.63226349 126.53159668 160.48718323 126.53881836 159.30740356 C126.55644298 155.51719002 126.54475892 151.72772132 126.53125 147.9375 C126.53394361 145.30720883 126.53782493 142.67691862 126.54284668 140.04663086 C126.55012172 134.5319815 126.54053937 129.01754649 126.52148438 123.50292969 C126.4997156 117.12937333 126.50676709 110.7563288 126.52879 104.38278484 C126.54913571 98.24886478 126.546974 92.11517146 126.53526306 85.98123169 C126.5325911 83.37207976 126.53588192 80.7629148 126.54518127 78.15377808 C126.55531833 74.50971674 126.53988374 70.86664381 126.51757812 67.22265625 C126.52567505 66.13993439 126.53377197 65.05721252 126.54211426 63.94168091 C126.49260848 58.41621527 126.49260848 58.41621527 124.58300781 53.33093262 C120.51927373 51.23703409 116.66277493 51.44368838 112.15429688 51.48242188 C111.15552017 51.4754126 110.15674347 51.46840332 109.12770081 51.46118164 C105.82443484 51.4435687 102.52202476 51.45523656 99.21875 51.46875 C96.92476232 51.46605605 94.63077576 51.46217444 92.33679199 51.45715332 C87.52829114 51.45125378 82.72008742 51.45983622 77.91162109 51.47851562 C71.74413146 51.50130505 65.57733805 51.48818446 59.40987396 51.46422577 C54.67269635 51.44978034 49.93568415 51.4543681 45.19850159 51.46473694 C42.92427997 51.46740768 40.65004339 51.46412232 38.37583923 51.45481873 C35.19872181 51.44467416 32.02273612 51.46012589 28.84570312 51.48242188 C27.43201195 51.47027649 27.43201195 51.47027649 25.98976135 51.45788574 C22.31015312 51.50579035 19.71045053 51.63207912 16.41699219 53.33766174 Z " fill="#FEFEFE" transform="translate(42,20)"/>
<path d="M0 0 C1.0401123 -0.01705994 2.08022461 -0.03411987 3.15185547 -0.05169678 C4.28237335 -0.04988403 5.41289124 -0.04807129 6.57766724 -0.04620361 C7.77659607 -0.05963806 8.9755249 -0.07307251 10.21078491 -0.08691406 C13.49200444 -0.11836822 16.77261579 -0.13162201 20.05396795 -0.13417721 C22.1062549 -0.13702497 24.15843646 -0.14557292 26.21069717 -0.15616608 C33.37703413 -0.19314611 40.54307396 -0.20950991 47.70950317 -0.20635986 C54.37933409 -0.20395724 61.04787039 -0.24615841 67.71737373 -0.30933452 C73.45262996 -0.36171607 79.18746406 -0.38309225 84.92295754 -0.38053823 C88.34467957 -0.37952051 91.7652505 -0.39079392 95.18673325 -0.43325043 C99.00563676 -0.47245703 102.82120983 -0.46094538 106.64016724 -0.43682861 C107.76663666 -0.45930664 108.89310608 -0.48178467 110.05371094 -0.50494385 C117.62590489 -0.38345622 117.62590489 -0.38345622 120.76457977 2.2075634 C121.9279805 3.59756814 123.0475089 5.02545663 124.12058449 6.4863205 C126.23846118 9.16819105 128.58791228 10.53674489 131.50478363 12.2428627 C143.41441995 19.30843994 155.48075418 29.78705741 159.30276871 43.57046318 C164.69280192 68.08864179 162.18366753 95.02008328 161.28482199 119.90245366 C160.92911704 129.97176579 160.78827013 140.04112471 160.65466928 150.11540484 C160.4489676 164.94684078 160.17898526 179.77980011 159.68131638 194.60456276 C159.62933036 196.19961025 159.58214393 197.7948223 159.54005051 199.39016151 C159.48123555 201.56230792 159.40396611 203.73298255 159.32113647 205.90432739 C159.28104084 207.1197138 159.24094521 208.33510021 159.19963455 209.58731651 C158.73831177 212.53485107 158.73831177 212.53485107 157.60992813 214.4250288 C154.79715872 216.09293159 152.46500553 215.91591366 149.20962524 215.92253113 C148.21052683 215.93060943 148.21052683 215.93060943 147.1912446 215.93885094 C144.95479371 215.95318206 142.71893042 215.94601453 140.48245239 215.93890381 C138.88098167 215.94460467 137.27951502 215.95156782 135.67805481 215.95970154 C131.32480572 215.97767848 126.97175769 215.97645623 122.61848259 215.97075915 C118.98753541 215.96767419 115.35662724 215.97375194 111.7256856 215.9797979 C103.1623159 215.99385608 94.59904593 215.99227079 86.03567505 215.980896 C77.19292221 215.96940987 68.35047247 215.98349574 59.50775957 216.01029247 C51.92213058 216.03242148 44.33659693 216.03909329 36.75093794 216.03321606 C32.21746534 216.02983898 27.68418712 216.03231125 23.15074158 216.04946709 C18.88906817 216.06489 14.62784526 216.06103294 10.36618996 216.04216194 C8.80004274 216.03846325 7.23386247 216.04162165 5.66774559 216.05204773 C3.53363771 216.06517304 1.40104004 216.05378846 -0.73300171 216.03605652 C-1.92835793 216.03584723 -3.12371414 216.03563795 -4.35529327 216.03542233 C-7.26168823 215.53485107 -7.26168823 215.53485107 -9.14508057 214.02306461 C-10.74540799 210.45694512 -10.68193459 207.05831942 -10.65609741 203.222229 C-10.66218852 202.37633823 -10.66827962 201.53044745 -10.6745553 200.65892363 C-10.69122595 197.81990423 -10.68640374 194.98133134 -10.68161011 192.14227295 C-10.688948 190.10878532 -10.6975334 188.07530187 -10.70727539 186.04182434 C-10.72952753 180.51507262 -10.73242028 174.98846983 -10.73052788 169.46167946 C-10.73040837 164.85155835 -10.73896437 160.24146901 -10.74730539 155.63135672 C-10.76655213 144.75850914 -10.76941836 133.88573836 -10.76266479 123.01287842 C-10.75601992 111.7860551 -10.77890358 100.55955999 -10.81597853 89.33280325 C-10.84663441 79.70129798 -10.85804011 70.06989853 -10.85414171 60.43834543 C-10.85207027 54.68248521 -10.8576146 48.92688043 -10.8820343 43.17106628 C-10.90423142 37.76026877 -10.90248224 32.35000663 -10.88210678 26.93920708 C-10.87868445 24.95098394 -10.8838381 22.96272525 -10.89809036 20.97455025 C-10.9161777 18.26489321 -10.90361319 15.55707296 -10.88314819 12.84747314 C-10.89566604 12.05642669 -10.90818389 11.26538024 -10.92108107 10.45036268 C-10.86004046 6.69361482 -10.58298765 4.896295 -8.0517025 2.04874039 C-5.06063143 0.42575567 -3.37413275 0.02511117 0 0 Z M3.73831177 15.53485107 C3.73831177 76.58485107 3.73831177 137.63485107 3.73831177 200.53485107 C50.26831177 200.53485107 96.79831177 200.53485107 144.73831177 200.53485107 C144.73831177 151.36485107 144.73831177 102.19485107 144.73831177 51.53485107 C133.84831177 51.20485107 122.95831177 50.87485107 111.73831177 50.53485107 C103.45848354 42.25502284 109.09298064 27.23892392 108.73831177 15.53485107 C74.08831177 15.53485107 39.43831177 15.53485107 3.73831177 15.53485107 Z " fill="#121212" transform="translate(38.261688232421875,4.46514892578125)"/>
<path d="M0 0 C0.9987767 -0.00700928 1.99755341 -0.01401855 3.02659607 -0.02124023 C6.32986203 -0.03885318 9.63227211 -0.02718532 12.93554688 -0.01367188 C15.22953455 -0.01636583 17.52352112 -0.02024744 19.81750488 -0.02526855 C24.62600574 -0.0311681 29.43420945 -0.02258566 34.24267578 -0.00390625 C40.41016542 0.01888317 46.57695883 0.00576259 52.74442291 -0.01819611 C57.48160052 -0.03264154 62.21861273 -0.02805378 66.95579529 -0.01768494 C69.23001691 -0.0150142 71.50425348 -0.01829955 73.77845764 -0.02760315 C76.95557506 -0.03774772 80.13156075 -0.02229598 83.30859375 0 C84.25105453 -0.00809692 85.19351532 -0.01619385 86.16453552 -0.02453613 C89.84005212 0.0233152 92.4443911 0.15178877 95.73730469 1.84851074 C98.09405848 6.28772693 97.70885799 10.79486338 97.671875 15.74023438 C97.67888428 16.88531464 97.68589355 18.0303949 97.69311523 19.21017456 C97.71073986 23.00038811 97.6990558 26.7898568 97.68554688 30.58007812 C97.68824048 33.2103693 97.6921218 35.84065951 97.69714355 38.47094727 C97.7044186 43.98559662 97.69483625 49.50003163 97.67578125 55.01464844 C97.65401247 61.38820479 97.66106397 67.76124933 97.68308687 74.13479328 C97.70343258 80.26871334 97.70127087 86.40240667 97.68955994 92.53634644 C97.68688798 95.14549837 97.69017879 97.75466332 97.69947815 100.36380005 C97.70961521 104.00786139 97.69418061 107.65093432 97.671875 111.29492188 C97.67997192 112.37764374 97.68806885 113.4603656 97.69641113 114.57589722 C97.6160455 121.64814481 97.6160455 121.64814481 95.73730469 125.18565369 C91.67480222 127.28047752 87.81686512 127.082242 83.30859375 127.05102539 C82.30981705 127.05964096 81.31104034 127.06825653 80.28199768 127.07713318 C76.97875089 127.09984614 73.67634873 127.0930446 70.37304688 127.08398438 C68.0790583 127.08921735 65.78507188 127.09549263 63.49108887 127.10276794 C58.68259559 127.11318187 53.87439807 127.10859588 49.06591797 127.09399414 C42.89832395 127.07680004 36.73166095 127.10030505 30.56417084 127.13548374 C25.82698369 127.15742371 21.09002051 127.15602452 16.35279846 127.14771843 C14.07856729 127.14689715 11.80431995 127.15379414 9.53013611 127.16848946 C6.35283839 127.18587305 3.17722917 127.17144353 0 127.14868164 C-1.41369118 127.16621994 -1.41369118 127.16621994 -2.85594177 127.18411255 C-6.85170113 127.12575199 -9.12239 127.03189614 -12.42871094 124.6809082 C-14.56977929 119.90113173 -14.40250756 115.45582354 -14.36328125 110.27319336 C-14.37029053 109.13772064 -14.3772998 108.00224792 -14.38452148 106.83236694 C-14.40212319 103.080053 -14.39047093 99.32849346 -14.37695312 95.57617188 C-14.3796472 92.96973017 -14.38352892 90.36328945 -14.3885498 87.7568512 C-14.39582043 82.29525578 -14.38625302 76.83387696 -14.3671875 71.37231445 C-14.34540866 65.06065166 -14.35247928 58.74950552 -14.37449312 52.43785518 C-14.39483818 46.36106356 -14.39267784 40.2845008 -14.38096619 34.20768929 C-14.37829458 31.62365713 -14.38158381 29.03961182 -14.3908844 26.45559502 C-14.40102134 22.84756186 -14.38558762 19.24052699 -14.36328125 15.63256836 C-14.37137817 14.56076828 -14.3794751 13.4889682 -14.38781738 12.38468933 C-14.30748051 5.38519589 -14.30748051 5.38519589 -12.42871094 1.85523987 C-8.36636845 -0.24852463 -4.5111707 -0.03875663 0 0 Z M-6.84570312 7.51757812 C-6.84570312 44.47757813 -6.84570312 81.43757813 -6.84570312 119.51757812 C25.16429687 119.51757812 57.17429687 119.51757812 90.15429688 119.51757812 C90.15429688 119.18757813 90.15429688 118.85757813 90.15429688 118.51757812 C58.47429687 118.51757812 26.79429688 118.51757812 -5.84570312 118.51757812 C-5.84570312 89.47757812 -5.84570312 60.43757812 -5.84570312 30.51757812 C1.08429688 30.51757812 8.01429687 30.51757812 15.15429688 30.51757812 C15.15429688 52.29757813 15.15429688 74.07757813 15.15429688 96.51757812 C11.19429687 96.51757812 7.23429687 96.51757812 3.15429688 96.51757812 C3.15429688 96.84757812 3.15429688 97.17757812 3.15429688 97.51757812 C4.21474213 97.52788559 5.27518738 97.53819305 6.36776733 97.54881287 C16.34474904 97.64642382 26.32166665 97.74914605 36.29854393 97.85691738 C41.4281738 97.91216271 46.55780935 97.96558528 51.6875 98.01489258 C56.63474225 98.06251238 61.58191376 98.11485432 66.52907181 98.17051888 C68.41975781 98.19095325 70.31046321 98.20966451 72.20118332 98.22665215 C74.84236441 98.25067222 77.48341109 98.28073 80.12451172 98.31225586 C80.91213394 98.31801132 81.69975616 98.32376678 82.51124573 98.32969666 C87.92619255 98.40352596 87.92619255 98.40352596 90.15429688 99.51757812 C90.15429688 69.15757812 90.15429688 38.79757813 90.15429688 7.51757812 C58.14429688 7.51757812 26.13429688 7.51757812 -6.84570312 7.51757812 Z " fill="#030303" transform="translate(70.845703125,71.482421875)"/>
<path d="M0 0 C1.0401123 -0.01705994 2.08022461 -0.03411987 3.15185547 -0.05169678 C4.28237335 -0.04988403 5.41289124 -0.04807129 6.57766724 -0.04620361 C7.77659607 -0.05963806 8.9755249 -0.07307251 10.21078491 -0.08691406 C13.49200444 -0.11836822 16.77261579 -0.13162201 20.05396795 -0.13417721 C22.1062549 -0.13702497 24.15843646 -0.14557292 26.21069717 -0.15616608 C33.37703413 -0.19314611 40.54307396 -0.20950991 47.70950317 -0.20635986 C54.37933409 -0.20395724 61.04787039 -0.24615841 67.71737373 -0.30933452 C73.45262996 -0.36171607 79.18746406 -0.38309225 84.92295754 -0.38053823 C88.34467957 -0.37952051 91.7652505 -0.39079392 95.18673325 -0.43325043 C99.00563676 -0.47245703 102.82120983 -0.46094538 106.64016724 -0.43682861 C107.76663666 -0.45930664 108.89310608 -0.48178467 110.05371094 -0.50494385 C117.62590489 -0.38345622 117.62590489 -0.38345622 120.76457977 2.2075634 C121.9279805 3.59756814 123.0475089 5.02545663 124.12058449 6.4863205 C126.23846118 9.16819105 128.58791228 10.53674489 131.50478363 12.2428627 C143.41441995 19.30843994 155.48075418 29.78705741 159.30276871 43.57046318 C164.69280192 68.08864179 162.18366753 95.02008328 161.28482199 119.90245366 C160.92911704 129.97176579 160.78827013 140.04112471 160.65466928 150.11540484 C160.4489676 164.94684078 160.17898526 179.77980011 159.68131638 194.60456276 C159.62933036 196.19961025 159.58214393 197.7948223 159.54005051 199.39016151 C159.48123555 201.56230792 159.40396611 203.73298255 159.32113647 205.90432739 C159.28104084 207.1197138 159.24094521 208.33510021 159.19963455 209.58731651 C158.73831177 212.53485107 158.73831177 212.53485107 157.60992813 214.4250288 C154.79715872 216.09293159 152.46500553 215.91591366 149.20962524 215.92253113 C148.21052683 215.93060943 148.21052683 215.93060943 147.1912446 215.93885094 C144.95479371 215.95318206 142.71893042 215.94601453 140.48245239 215.93890381 C138.88098167 215.94460467 137.27951502 215.95156782 135.67805481 215.95970154 C131.32480572 215.97767848 126.97175769 215.97645623 122.61848259 215.97075915 C118.98753541 215.96767419 115.35662724 215.97375194 111.7256856 215.9797979 C103.1623159 215.99385608 94.59904593 215.99227079 86.03567505 215.980896 C77.19292221 215.96940987 68.35047247 215.98349574 59.50775957 216.01029247 C51.92213058 216.03242148 44.33659693 216.03909329 36.75093794 216.03321606 C32.21746534 216.02983898 27.68418712 216.03231125 23.15074158 216.04946709 C18.88906817 216.06489 14.62784526 216.06103294 10.36618996 216.04216194 C8.80004274 216.03846325 7.23386247 216.04162165 5.66774559 216.05204773 C3.53363771 216.06517304 1.40104004 216.05378846 -0.73300171 216.03605652 C-1.92835793 216.03584723 -3.12371414 216.03563795 -4.35529327 216.03542233 C-7.26168823 215.53485107 -7.26168823 215.53485107 -9.14508057 214.02306461 C-10.74540799 210.45694512 -10.68193459 207.05831942 -10.65609741 203.222229 C-10.66218852 202.37633823 -10.66827962 201.53044745 -10.6745553 200.65892363 C-10.69122595 197.81990423 -10.68640374 194.98133134 -10.68161011 192.14227295 C-10.688948 190.10878532 -10.6975334 188.07530187 -10.70727539 186.04182434 C-10.72952753 180.51507262 -10.73242028 174.98846983 -10.73052788 169.46167946 C-10.73040837 164.85155835 -10.73896437 160.24146901 -10.74730539 155.63135672 C-10.76655213 144.75850914 -10.76941836 133.88573836 -10.76266479 123.01287842 C-10.75601992 111.7860551 -10.77890358 100.55955999 -10.81597853 89.33280325 C-10.84663441 79.70129798 -10.85804011 70.06989853 -10.85414171 60.43834543 C-10.85207027 54.68248521 -10.8576146 48.92688043 -10.8820343 43.17106628 C-10.90423142 37.76026877 -10.90248224 32.35000663 -10.88210678 26.93920708 C-10.87868445 24.95098394 -10.8838381 22.96272525 -10.89809036 20.97455025 C-10.9161777 18.26489321 -10.90361319 15.55707296 -10.88314819 12.84747314 C-10.89566604 12.05642669 -10.90818389 11.26538024 -10.92108107 10.45036268 C-10.86004046 6.69361482 -10.58298765 4.896295 -8.0517025 2.04874039 C-5.06063143 0.42575567 -3.37413275 0.02511117 0 0 Z M-4.26168823 8.53485107 C-4.26168823 74.53485107 -4.26168823 140.53485107 -4.26168823 208.53485107 C47.54831177 208.53485107 99.35831177 208.53485107 152.73831177 208.53485107 C152.73831177 154.41485107 152.73831177 100.29485107 152.73831177 44.53485107 C151.41831177 44.20485107 150.09831177 43.87485107 148.73831177 43.53485107 C148.73831177 42.87485107 148.73831177 42.21485107 148.73831177 41.53485107 C148.07831177 41.53485107 147.41831177 41.53485107 146.73831177 41.53485107 C146.73831177 40.87485107 146.73831177 40.21485107 146.73831177 39.53485107 C146.07831177 39.53485107 145.41831177 39.53485107 144.73831177 39.53485107 C144.73831177 38.87485107 144.73831177 38.21485107 144.73831177 37.53485107 C144.07831177 37.53485107 143.41831177 37.53485107 142.73831177 37.53485107 C142.73831177 36.87485107 142.73831177 36.21485107 142.73831177 35.53485107 C142.07831177 35.53485107 141.41831177 35.53485107 140.73831177 35.53485107 C140.73831177 34.87485107 140.73831177 34.21485107 140.73831177 33.53485107 C140.07831177 33.53485107 139.41831177 33.53485107 138.73831177 33.53485107 C138.73831177 32.87485107 138.73831177 32.21485107 138.73831177 31.53485107 C138.07831177 31.53485107 137.41831177 31.53485107 136.73831177 31.53485107 C136.73831177 30.87485107 136.73831177 30.21485107 136.73831177 29.53485107 C136.07831177 29.53485107 135.41831177 29.53485107 134.73831177 29.53485107 C134.73831177 28.87485107 134.73831177 28.21485107 134.73831177 27.53485107 C134.07831177 27.53485107 133.41831177 27.53485107 132.73831177 27.53485107 C132.73831177 26.87485107 132.73831177 26.21485107 132.73831177 25.53485107 C132.07831177 25.53485107 131.41831177 25.53485107 130.73831177 25.53485107 C130.73831177 24.87485107 130.73831177 24.21485107 130.73831177 23.53485107 C130.07831177 23.53485107 129.41831177 23.53485107 128.73831177 23.53485107 C128.73831177 22.87485107 128.73831177 22.21485107 128.73831177 21.53485107 C128.07831177 21.53485107 127.41831177 21.53485107 126.73831177 21.53485107 C126.73831177 20.87485107 126.73831177 20.21485107 126.73831177 19.53485107 C126.07831177 19.53485107 125.41831177 19.53485107 124.73831177 19.53485107 C124.73831177 18.87485107 124.73831177 18.21485107 124.73831177 17.53485107 C124.07831177 17.53485107 123.41831177 17.53485107 122.73831177 17.53485107 C122.73831177 16.87485107 122.73831177 16.21485107 122.73831177 15.53485107 C122.07831177 15.53485107 121.41831177 15.53485107 120.73831177 15.53485107 C120.65581177 14.95735107 120.57331177 14.37985107 120.48831177 13.78485107 C119.41659758 10.56970851 118.54414084 9.53481841 115.73831177 7.53485107 C112.028557 6.93001699 108.34250001 7.02018079 104.59158325 7.06488037 C103.45465027 7.06268997 102.31771729 7.06049957 101.14633179 7.0582428 C97.38372833 7.05592902 93.62190483 7.0822029 89.85940552 7.10906982 C87.24914295 7.11399207 84.63887686 7.11729203 82.02861023 7.11903381 C76.55682121 7.12547928 71.08525592 7.14671892 65.61355591 7.17816162 C58.58974737 7.2184702 51.56608451 7.23585269 44.54217434 7.245471 C37.85622766 7.25466195 31.17032377 7.27533269 24.48440552 7.29656982 C23.20293577 7.29996557 21.92146603 7.30336132 20.60116386 7.30685997 C16.98594028 7.31840568 13.37082572 7.336922 9.75564575 7.35784912 C8.67867935 7.36053802 7.60171295 7.36322693 6.49211121 7.36599731 C5.01791214 7.37673027 5.01791214 7.37673027 3.51393127 7.38768005 C2.65909369 7.39195354 1.80425611 7.39622702 0.92351437 7.40063 C-1.44158109 7.45177545 -1.44158109 7.45177545 -4.26168823 8.53485107 Z " fill="#060606" transform="translate(38.261688232421875,4.46514892578125)"/>
<path d="M0 0 C0.9987767 -0.00700928 1.99755341 -0.01401855 3.02659607 -0.02124023 C6.32986203 -0.03885318 9.63227211 -0.02718532 12.93554688 -0.01367188 C15.22953455 -0.01636583 17.52352112 -0.02024744 19.81750488 -0.02526855 C24.62600574 -0.0311681 29.43420945 -0.02258566 34.24267578 -0.00390625 C40.41016542 0.01888317 46.57695883 0.00576259 52.74442291 -0.01819611 C57.48160052 -0.03264154 62.21861273 -0.02805378 66.95579529 -0.01768494 C69.23001691 -0.0150142 71.50425348 -0.01829955 73.77845764 -0.02760315 C76.95557506 -0.03774772 80.13156075 -0.02229598 83.30859375 0 C84.25105453 -0.00809692 85.19351532 -0.01619385 86.16453552 -0.02453613 C89.84005212 0.0233152 92.4443911 0.15178877 95.73730469 1.84851074 C98.09405848 6.28772693 97.70885799 10.79486338 97.671875 15.74023438 C97.67888428 16.88531464 97.68589355 18.0303949 97.69311523 19.21017456 C97.71073986 23.00038811 97.6990558 26.7898568 97.68554688 30.58007812 C97.68824048 33.2103693 97.6921218 35.84065951 97.69714355 38.47094727 C97.7044186 43.98559662 97.69483625 49.50003163 97.67578125 55.01464844 C97.65401247 61.38820479 97.66106397 67.76124933 97.68308687 74.13479328 C97.70343258 80.26871334 97.70127087 86.40240667 97.68955994 92.53634644 C97.68688798 95.14549837 97.69017879 97.75466332 97.69947815 100.36380005 C97.70961521 104.00786139 97.69418061 107.65093432 97.671875 111.29492188 C97.67997192 112.37764374 97.68806885 113.4603656 97.69641113 114.57589722 C97.6160455 121.64814481 97.6160455 121.64814481 95.73730469 125.18565369 C91.67480222 127.28047752 87.81686512 127.082242 83.30859375 127.05102539 C82.30981705 127.05964096 81.31104034 127.06825653 80.28199768 127.07713318 C76.97875089 127.09984614 73.67634873 127.0930446 70.37304688 127.08398438 C68.0790583 127.08921735 65.78507188 127.09549263 63.49108887 127.10276794 C58.68259559 127.11318187 53.87439807 127.10859588 49.06591797 127.09399414 C42.89832395 127.07680004 36.73166095 127.10030505 30.56417084 127.13548374 C25.82698369 127.15742371 21.09002051 127.15602452 16.35279846 127.14771843 C14.07856729 127.14689715 11.80431995 127.15379414 9.53013611 127.16848946 C6.35283839 127.18587305 3.17722917 127.17144353 0 127.14868164 C-1.41369118 127.16621994 -1.41369118 127.16621994 -2.85594177 127.18411255 C-6.85170113 127.12575199 -9.12239 127.03189614 -12.42871094 124.6809082 C-14.56977929 119.90113173 -14.40250756 115.45582354 -14.36328125 110.27319336 C-14.37029053 109.13772064 -14.3772998 108.00224792 -14.38452148 106.83236694 C-14.40212319 103.080053 -14.39047093 99.32849346 -14.37695312 95.57617188 C-14.3796472 92.96973017 -14.38352892 90.36328945 -14.3885498 87.7568512 C-14.39582043 82.29525578 -14.38625302 76.83387696 -14.3671875 71.37231445 C-14.34540866 65.06065166 -14.35247928 58.74950552 -14.37449312 52.43785518 C-14.39483818 46.36106356 -14.39267784 40.2845008 -14.38096619 34.20768929 C-14.37829458 31.62365713 -14.38158381 29.03961182 -14.3908844 26.45559502 C-14.40102134 22.84756186 -14.38558762 19.24052699 -14.36328125 15.63256836 C-14.37137817 14.56076828 -14.3794751 13.4889682 -14.38781738 12.38468933 C-14.30748051 5.38519589 -14.30748051 5.38519589 -12.42871094 1.85523987 C-8.36636845 -0.24852463 -4.5111707 -0.03875663 0 0 Z M-6.84570312 7.51757812 C-6.84570312 44.47757813 -6.84570312 81.43757813 -6.84570312 119.51757812 C9.13867188 119.53820312 25.12304688 119.55882812 41.59179688 119.58007812 C49.17426392 119.59373413 49.17426392 119.59373413 56.90991211 119.60766602 C61.4245068 119.61100957 61.4245068 119.61100957 65.93910217 119.61302185 C67.95656047 119.61456169 69.97401782 119.61808743 71.99147034 119.62315369 C75.03982147 119.63042885 78.08811615 119.63148562 81.13647461 119.63110352 C82.49417418 119.63650068 82.49417418 119.63650068 83.87930202 119.64200687 C87.8322621 120.03267106 87.8322621 120.03267106 91.15429688 118.51757812 C91.2456309 116.12663904 91.26972793 113.76786146 91.24804688 111.37695312 C91.24266907 110.24540802 91.24266907 110.24540802 91.23718262 109.09100342 C91.16171269 98.030187 90.86340952 86.97068815 90.58154297 75.91357422 C90.00776414 53.10684172 90.15429688 30.3460453 90.15429688 7.51757812 C58.14429688 7.51757812 26.13429688 7.51757812 -6.84570312 7.51757812 Z " fill="#070707" transform="translate(70.845703125,71.482421875)"/>
<path d="M0 0 C6.69967152 -0.02325378 13.39919686 -0.0430738 20.09887695 -0.05493164 C22.36678549 -0.05988725 24.63469096 -0.06665365 26.90258789 -0.07543945 C42.30613353 -0.13351448 57.61427891 0.22491607 73 1 C73 7.93 73 14.86 73 22 C48.91 22 24.82 22 0 22 C0 14.74 0 7.48 0 0 Z " fill="#030303" transform="translate(87,146)"/>
<path d="M0 0 C1.4282618 0.00031703 2.85654759 0.01163717 4.28466797 0.03173828 C5.41242142 0.03598312 5.41242142 0.03598312 6.56295776 0.04031372 C8.96775125 0.05152204 11.37217428 0.07662726 13.77685547 0.10205078 C15.40575635 0.11207976 17.03466305 0.12120576 18.66357422 0.12939453 C22.65992602 0.1497633 26.65547537 0.1889093 30.65185547 0.22705078 C30.65185547 7.15705078 30.65185547 14.08705078 30.65185547 21.22705078 C18.77185547 21.22705078 6.89185547 21.22705078 -5.34814453 21.22705078 C-5.38939453 18.13330078 -5.43064453 15.03955078 -5.47314453 11.85205078 C-5.49135254 10.8783252 -5.50956055 9.90459961 -5.52832031 8.90136719 C-5.53331543 8.1348584 -5.53831055 7.36834961 -5.54345703 6.57861328 C-5.55393066 5.79309082 -5.5644043 5.00756836 -5.57519531 4.19824219 C-5.14336962 0.44925226 -3.5232466 0.23892514 0 0 Z " fill="#000000" transform="translate(92.34814453125,101.77294921875)"/>
<path d="M0 0 C7.92 0 15.84 0 24 0 C24 2.97 24 5.94 24 9 C16.08 9 8.16 9 0 9 C0 6.03 0 3.06 0 0 Z " fill="#E6E6E6" transform="translate(130,108)"/>
<path d="M0 0 C7.92 0 15.84 0 24 0 C24 2.97 24 5.94 24 9 C16.08 9 8.16 9 0 9 C0 6.03 0 3.06 0 0 Z " fill="#E0E0E0" transform="translate(93,108)"/>
<path d="M0 0 C7.92 0 15.84 0 24 0 C24 2.64 24 5.28 24 8 C16.08 8 8.16 8 0 8 C0 5.36 0 2.72 0 0 Z " fill="#F2F2F2" transform="translate(93,175)"/>
<path d="M0 0 C7.59 0 15.18 0 23 0 C23 2.64 23 5.28 23 8 C15.41 8 7.82 8 0 8 C0 5.36 0 2.72 0 0 Z " fill="#F5F5F5" transform="translate(131,175)"/>
<path d="M0 0 C7.59 0 15.18 0 23 0 C23 2.64 23 5.28 23 8 C15.41 8 7.82 8 0 8 C0 5.36 0 2.72 0 0 Z " fill="#FAFAFA" transform="translate(131,153)"/>
<path d="M0 0 C7.59 0 15.18 0 23 0 C23 2.64 23 5.28 23 8 C15.41 8 7.82 8 0 8 C0 5.36 0 2.72 0 0 Z " fill="#FCFCFC" transform="translate(94,153)"/>
<path d="M0 0 C7.59 0 15.18 0 23 0 C23 2.64 23 5.28 23 8 C15.41 8 7.82 8 0 8 C0 5.36 0 2.72 0 0 Z " fill="#F7F7F7" transform="translate(131,131)"/>
<path d="M0 0 C7.59 0 15.18 0 23 0 C23 2.64 23 5.28 23 8 C15.41 8 7.82 8 0 8 C0 5.36 0 2.72 0 0 Z " fill="#F7F7F7" transform="translate(94,131)"/>
<path d="M0 0 C7.59 0 15.18 0 23 0 C23 2.64 23 5.28 23 8 C15.41 8 7.82 8 0 8 C0 5.36 0 2.72 0 0 Z " fill="#F8F8F8" transform="translate(131,86)"/>
<path d="M0 0 C7.59 0 15.18 0 23 0 C23 2.64 23 5.28 23 8 C15.41 8 7.82 8 0 8 C0 5.36 0 2.72 0 0 Z " fill="#F7F7F7" transform="translate(94,86)"/>
<path d="M0 0 C15.16839455 -0.14020027 30.3367592 -0.24598562 45.50565624 -0.31087303 C52.54899449 -0.34180327 59.59193002 -0.38396667 66.63500977 -0.45263672 C73.43015172 -0.51885776 80.22487471 -0.55369188 87.02031898 -0.56926346 C89.61475529 -0.58036239 92.20916832 -0.60203583 94.80342674 -0.63438034 C98.43350367 -0.67784517 102.06184402 -0.68393781 105.69213867 -0.68115234 C107.30622871 -0.71350983 107.30622871 -0.71350983 108.95292664 -0.746521 C116.10163385 -0.68704285 116.10163385 -0.68704285 118.80648232 1.38154221 C120.20674133 3.04257202 120.20674133 3.04257202 122 6 C120.02 6.66 118.04 7.32 116 8 C116 5.69 116 3.38 116 1 C77.72 1 39.44 1 0 1 C0 0.67 0 0.34 0 0 Z " fill="#656565" transform="translate(37,12)"/>
<path d="M0 0 C0.66 0 1.32 0 2 0 C3.5859375 1.64453125 3.5859375 1.64453125 5.375 3.8125 C7.23566282 6.06250857 8.86872703 7.90350285 11.2265625 9.63671875 C11.81179687 10.08660156 12.39703125 10.53648438 13 11 C13 11.66 13 12.32 13 13 C8.71 13 4.42 13 0 13 C0 8.71 0 4.42 0 0 Z " fill="#DADADA" transform="translate(160,30)"/>
<path d="M0 0 C12.54 0 25.08 0 38 0 C38 7.59 38 15.18 38 23 C29.75 23 21.5 23 13 23 C13 22.67 13 22.34 13 22 C20.92 22 28.84 22 37 22 C37 15.07 37 8.14 37 1 C32.21232955 1.09692673 27.42552703 1.19964748 22.63842773 1.31738281 C21.00992451 1.35566618 19.38133691 1.39052024 17.75268555 1.421875 C15.41163986 1.46754002 13.0711747 1.52553077 10.73046875 1.5859375 C9.63813179 1.60326431 9.63813179 1.60326431 8.52372742 1.62094116 C4.83038626 1.72878512 3.15173586 1.89884276 0 4 C0 2.68 0 1.36 0 0 Z " fill="#2E2E2E" transform="translate(86,101)"/>
<path d="M0 0 C2.97 0 5.94 0 9 0 C9 2.97 9 5.94 9 9 C6.03 9 3.06 9 0 9 C0 6.03 0 3.06 0 0 Z " fill="#D9D9D9" transform="translate(71,108)"/>
<path d="M0 0 C2.97 0 5.94 0 9 0 C9 2.64 9 5.28 9 8 C6.03 8 3.06 8 0 8 C0 5.36 0 2.72 0 0 Z " fill="#E1E1E1" transform="translate(71,175)"/>
<path d="M0 0 C2.64 0 5.28 0 8 0 C8 2.97 8 5.94 8 9 C5.36 9 2.72 9 0 9 C0 6.03 0 3.06 0 0 Z " fill="#E3E3E3" transform="translate(72,130)"/>
<path d="M0 0 C2.64 0 5.28 0 8 0 C8 2.97 8 5.94 8 9 C5.36 9 2.72 9 0 9 C0 6.03 0 3.06 0 0 Z " fill="#E4E4E4" transform="translate(72,86)"/>
<path d="M0 0 C2.64 0 5.28 0 8 0 C8 2.64 8 5.28 8 8 C5.36 8 2.72 8 0 8 C0 5.36 0 2.72 0 0 Z " fill="#F1F1F1" transform="translate(72,153)"/>
<path d="M0 0 C4.18076075 -0.14883585 8.36010137 -0.25743418 12.54272461 -0.32958984 C13.9638964 -0.35967954 15.38488372 -0.40056404 16.80541992 -0.45263672 C28.66655705 -0.87639713 28.66655705 -0.87639713 32.07275391 1.36230469 C33.45703125 3.0234375 33.45703125 3.0234375 35 6 C33.02 6.66 31.04 7.32 29 8 C29 5.69 29 3.38 29 1 C19.43 1 9.86 1 0 1 C0 0.67 0 0.34 0 0 Z " fill="#5D5D5D" transform="translate(124,12)"/>
<path d="M0 0 C8.91 0 17.82 0 27 0 C27 0.33 27 0.66 27 1 C25.9330188 1.029729 25.9330188 1.029729 24.84448242 1.06005859 C21.62511184 1.15524867 18.4063955 1.26495229 15.1875 1.375 C14.06794922 1.4059375 12.94839844 1.436875 11.79492188 1.46875 C10.18520508 1.52675781 10.18520508 1.52675781 8.54296875 1.5859375 C7.0583313 1.63306885 7.0583313 1.63306885 5.54370117 1.68115234 C2.75924906 1.83773433 2.75924906 1.83773433 0 4 C0 2.68 0 1.36 0 0 Z " fill="#757575" transform="translate(86,101)"/>
<path d="M0 0 C3.16115776 1.36983503 3.9927092 1.9890638 6 5 C4.02 5.66 2.04 6.32 0 7 C0 4.69 0 2.38 0 0 Z " fill="#D9D9D9" transform="translate(153,13)"/>
<path d="M0 0 C4.29 0 8.58 0 13 0 C13 0.33 13 0.66 13 1 C12.39671875 1.04898438 11.7934375 1.09796875 11.171875 1.1484375 C9.97304687 1.26058594 9.97304687 1.26058594 8.75 1.375 C7.56664063 1.47941406 7.56664063 1.47941406 6.359375 1.5859375 C3.914123 2.01507113 2.15163097 2.78600638 0 4 C0 2.68 0 1.36 0 0 Z " fill="#757575" transform="translate(86,123)"/>
</svg>
